# xmcd
# 
# Track frame offsets:
#     150
#     5057
#     13177
#     25141
#     34932
#     49543
#     57718
#     68122
#     80337
#     90017
#     102845
#     112023
# 
# Disc length: 1631
# 
# Revision: 0
# Processed by: cddbd v1.5.2PL0 Copyright (c) Steve Scherf et al.
# Submitted via: fre:ac v1.0.17
# 
DISCID=92065d0c
DTITLE=Humphammer and the Maggie Valley Ramblers - I Like the Bluegrass Sound
DYEAR=0
DGENRE=Country
TTITLE0=I Like the Bluegrass Sound
TTITLE1=Cherokee Melody
TTITLE2=Always Marry an Ugly Girl
TTITLE3=Way Down Town
TTITLE4=You Can't Be A Bluegrass Star (If Your Beard Won't Grow)
TTITLE5=Maggie Valley Breakdown
TTITLE6=Breakdown in the Smokies
TTITLE7=Rocky Top
TTITLE8=Lonesome Road Blues
TTITLE9=Will You Miss Me
TTITLE10=Old Cold Feet
TTITLE11=I Have a Friend in High Places
EXTD=
EXTT0=
EXTT1=
EXTT2=
EXTT3=
EXTT4=
EXTT5=
EXTT6=
EXTT7=
EXTT8=
EXTT9=
EXTT10=
EXTT11=
PLAYORDER=
